<?xml version="1.0" standalone="no"?>
<!DOCTYPE svg PUBLIC "-//W3C//DTD SVG 20010904//EN"
 "http://www.w3.org/TR/2001/REC-SVG-20010904/DTD/svg10.dtd">
<svg version="1.0" xmlns="http://www.w3.org/2000/svg"
 width="500.000000pt" height="500.000000pt" viewBox="0 0 500.000000 500.000000"
 preserveAspectRatio="xMidYMid meet">

<g transform="translate(0.000000,500.000000) scale(0.100000,-0.100000)"
fill="#000000" stroke="none">
<path d="M0 2500 l0 -2500 2500 0 2500 0 0 2500 0 2500 -2500 0 -2500 0 0
-2500z m1630 1017 c88 -93 174 -155 380 -277 96 -56 192 -113 213 -127 47 -30
91 -89 107 -148 7 -25 18 -45 24 -45 36 0 86 66 86 113 0 35 -31 70 -63 70
-28 0 -36 18 -14 34 6 6 35 18 64 28 44 16 58 17 92 7 59 -18 91 -62 91 -125
0 -29 8 -70 18 -91 l18 -39 27 65 c16 36 42 79 60 96 18 17 106 74 197 127
219 129 282 171 362 239 63 53 165 164 187 203 5 10 12 16 15 13 6 -7 -65
-224 -87 -266 -21 -41 -80 -93 -147 -131 -271 -152 -520 -295 -520 -298 0 -15
408 195 559 287 35 22 65 38 67 36 4 -4 -120 -224 -138 -246 -24 -29 -72 -42
-279 -77 -118 -20 -218 -38 -224 -40 -17 -7 134 6 294 26 85 11 156 18 158 16
2 -2 -35 -36 -83 -75 -60 -51 -94 -72 -114 -72 -15 0 -82 18 -150 40 -68 22
-126 40 -129 40 -3 0 21 -15 54 -33 127 -68 176 -127 155 -183 -8 -21 -117
-174 -124 -174 0 0 -1 44 -1 98 0 93 -2 102 -37 173 -20 41 -49 86 -64 99
l-26 25 30 -60 c64 -128 77 -219 41 -293 l-22 -43 30 -42 c26 -37 94 -95 173
-149 l25 -17 -53 0 c-89 -1 -138 36 -188 142 -17 36 -34 49 -34 26 0 -25 67
-142 109 -190 l45 -52 -39 6 c-58 10 -93 51 -119 140 l-22 75 -57 -50 c-31
-27 -57 -46 -57 -41 0 5 4 13 9 19 16 17 62 136 82 212 18 70 44 290 36 299
-2 2 -35 -98 -72 -222 -38 -124 -72 -225 -76 -225 -4 0 -10 10 -13 23 -4 12
-35 114 -71 227 -57 182 -64 199 -65 155 0 -129 47 -331 106 -447 l26 -51 -39
31 c-22 17 -46 39 -53 47 -12 15 -16 8 -32 -50 -10 -36 -25 -77 -34 -90 -17
-26 -71 -55 -104 -55 -19 0 -17 5 23 50 51 56 116 175 103 187 -5 4 -11 3 -13
-3 -2 -6 -18 -35 -36 -64 -46 -76 -73 -93 -155 -97 -57 -3 -64 -1 -48 9 82 56
138 102 170 141 l38 46 -22 31 c-50 70 -44 154 20 297 l30 68 -31 -35 c-16
-19 -42 -60 -57 -90 -24 -49 -27 -66 -27 -157 0 -57 -1 -103 -2 -103 -1 0 -30
37 -65 82 -52 69 -63 89 -63 122 0 33 7 44 48 82 26 23 72 55 102 70 30 14 55
28 55 29 0 2 -53 -14 -117 -36 -166 -54 -171 -54 -271 33 -45 39 -81 72 -79
74 1 2 70 -5 152 -15 159 -20 307 -33 290 -26 -5 2 -103 20 -216 39 -114 19
-220 41 -237 50 -17 9 -42 31 -55 48 -29 40 -130 219 -125 223 2 2 62 -30 133
-71 139 -81 485 -258 490 -252 2 2 -119 73 -268 158 -318 180 -347 200 -382
252 -22 33 -106 262 -105 286 1 4 15 -11 33 -33 17 -22 61 -71 97 -108z m961
-1145 c-19 -36 -12 -86 17 -133 32 -49 108 -120 164 -153 21 -11 38 -24 38
-28 0 -12 -81 -8 -120 5 -42 15 -91 77 -119 152 -26 70 -26 111 0 154 21 35
38 37 20 3z m-144 -50 c13 -54 -63 -217 -118 -251 -26 -16 -160 -29 -144 -14
6 5 40 31 78 57 74 52 143 135 153 184 3 17 1 46 -5 64 l-11 33 20 -24 c11
-13 23 -35 27 -49z m202 -287 c44 -54 41 -63 -14 -45 -58 19 -96 94 -109 215
l-7 60 44 -90 c24 -49 63 -112 86 -140z m-198 76 c-24 -79 -60 -119 -117 -128
l-39 -6 46 50 c26 29 63 89 85 137 38 83 39 84 42 50 2 -20 -6 -66 -17 -103z
m72 -28 c15 -73 15 -86 1 -132 -8 -28 -19 -51 -23 -51 -14 0 -41 65 -41 96 0
44 33 186 40 177 4 -5 15 -45 23 -90z m-1171 -627 c32 -21 54 -81 44 -120 -3
-14 -17 -37 -30 -52 -20 -24 -33 -28 -97 -33 l-74 -6 -3 -47 c-3 -43 -5 -48
-28 -48 l-24 0 0 166 0 166 93 -4 c67 -3 99 -9 119 -22z m470 14 c80 -23 106
-118 48 -183 l-29 -34 35 -51 35 -52 -35 0 c-31 0 -38 5 -63 50 -28 50 -28 51
-73 48 l-45 -3 -3 -47 c-3 -43 -5 -48 -28 -48 l-24 0 0 165 0 165 73 0 c39 0
89 -5 109 -10z m398 -155 l0 -165 -30 0 -30 0 0 165 0 165 30 0 30 0 0 -165z
m449 152 c40 -14 47 -26 29 -50 -12 -15 -17 -15 -58 -1 -34 11 -53 12 -73 5
-52 -20 -26 -57 59 -85 76 -25 107 -70 84 -125 -29 -70 -154 -82 -238 -23 -10
7 -11 14 -1 35 l12 26 28 -20 c56 -39 139 -33 139 10 0 24 -14 35 -74 55 -85
28 -117 79 -86 136 24 45 107 62 179 37z m351 -57 l0 -70 85 0 84 0 3 68 c3
65 4 67 31 70 l27 3 0 -165 0 -166 -30 0 -30 0 0 65 0 65 -85 0 -85 0 0 -65
c0 -63 -1 -65 -25 -65 l-25 0 0 165 0 165 25 0 c24 0 25 -2 25 -70z m726 -80
c84 -191 82 -180 45 -180 -25 0 -32 6 -42 35 l-13 35 -84 0 -83 0 -15 -35
c-12 -29 -19 -35 -45 -35 -16 0 -28 3 -26 8 2 4 35 78 73 165 67 154 70 158
98 155 27 -3 33 -13 92 -148z"/>
<path d="M1198 1424 c-5 -4 -8 -34 -8 -66 l0 -58 53 0 c68 0 97 19 97 64 0 19
-6 39 -14 45 -17 15 -118 26 -128 15z"/>
<path d="M1698 1424 c-5 -4 -8 -34 -8 -66 l0 -58 60 0 c47 0 64 4 80 20 26 26
26 62 0 85 -21 19 -119 33 -132 19z"/>
<path d="M3630 1365 c-45 -104 -47 -95 20 -95 33 0 60 2 60 4 0 2 -13 35 -29
73 l-30 68 -21 -50z"/>
</g>
</svg>
